#!OML:ASF F:\VICON\USERDATA\INSTALL\SteveWalk\SteveWalk.ASF
:FULLY-SPECIFIED
:DEGREES

314
root 0.381805 16.0749 22.6769 17.5095 -2.45278 3.73221
lowerback -15.1792 0.44055 -7.02953
upperback -5.08115 1.7105 -2.38715
thorax 2.96723 0.864858 1.74958
lowerneck -5.64262 -0.709919 -0.949233
upperneck 7.60391 -1.11229 2.91502
head 3.483 -0.459308 1.07212
rclavicle -1.61761e-014 3.97569e-016
rhumerus -30.1992 5.61481 -88.5439
rradius 55.2025
rwrist -21.7016
rhand -15.8528 -74.0408
rfingers 7.12502
rthumb 10.3421 -256.234
lclavicle -1.61761e-014 3.97569e-016
lhumerus -71.7112 37.5606 28.1056
lradius 10.3445
lwrist -52.0192
lhand -11.5345 -13.0538
lfingers 7.12502
lthumb 14.5056 16.4191
rfemur -22.1001 -4.07716 13.9464
rtibia 70.0093
rfoot 12.8406 8.66721
rtoes -6.8935
lfemur -42.2689 2.81783 -28.2751
ltibia 38.1022
lfoot -14.4772 -3.48025
ltoes -15.1218
315
root 0.410571 16.1077 22.9067 17.7511 -2.0639 3.05174
lowerback -15.7214 0.356863 -5.9622
upperback -5.0952 1.4807 -2.23422
thorax 3.2915 0.739113 1.2835
lowerneck -5.53847 -0.580769 -0.92297
upperneck 7.7602 -0.946238 2.92722
head 3.51327 -0.37549 1.08032
rclavicle 1.3977e-015 6.36111e-015
rhumerus -31.084 5.53917 -89.0968
rradius 53.8812
rwrist -21.482
rhand -15.0855 -79.8643
rfingers 7.12502
rthumb 11.0823 -250.448
lclavicle 1.3977e-015 6.36111e-015
lhumerus -68.7297 37.1313 32.4585
lradius 10.6556
lwrist -48.8767
lhand -12.106 -13.6383
lfingers 7.12502
lthumb 13.9548 15.8734
rfemur -23.8276 -4.63471 14.8831
rtibia 71.4226
rfoot 9.80616 8.19755
rtoes -5.18405
lfemur -41.6308 2.65851 -27.5736
ltibia 38.0397
lfoot -15.6427 -2.96678
ltoes -18.3759
316
root 0.44674 16.138 23.1232 17.8271 -1.58255 2.71188
lowerback -15.9522 0.225797 -5.12888
upperback -5.09584 1.19494 -2.17225
thorax 3.45303 0.592284 0.832796
lowerneck -5.27671 -0.492886 -0.915127
upperneck 7.75309 -0.829166 2.92698
head 3.45717 -0.319308 1.08357
rclavicle -7.33018e-016 -1.35174e-014
rhumerus -32.0777 5.35969 -89.5963
rradius 52.7981
rwrist -21.3207
rhand -15.1953 -81.0856
rfingers 7.12502
rthumb 10.9763 -249.221
lclavicle -7.33018e-016 -1.35174e-014
lhumerus -66.6233 37.1911 35.2057
lradius 10.8593
lwrist -47.4198
lhand -12.5558 -14.4581
lfingers 7.12502
lthumb 13.5213 15.083
rfemur -25.4436 -5.38557 15.4325
rtibia 72.7139
rfoot 6.59013 7.9712
rtoes -6.87662
lfemur -40.6163 2.36052 -27.262
ltibia 37.828
lfoot -16.2586 -2.7435
ltoes -17.9671
317
root 0.443736 16.1634 23.3279 17.5688 -1.80414 3.45702
lowerback -15.808 0.00215352 -6.10342
upperback -5.02707 1.04781 -2.276
thorax 3.43471 0.519791 1.24249
lowerneck -5.35593 -0.429166 -0.966182
upperneck 8.00099 -0.747016 2.95063
head 3.55776 -0.276984 1.10655
rclavicle 1.56263e-014 4.37326e-015
rhumerus -33.0131 4.84306 -90.0096
rradius 51.6497
rwrist -20.9801
rhand -16.119 -78.5217
rfingers 7.12502
rthumb 10.0853 -251.74
lclavicle 1.56263e-014 4.37326e-015
lhumerus -63.9946 36.9356 38.6899
lradius 11.1598
lwrist -45.4099
lhand -12.5831 -14.2354
lfingers 7.12502
lthumb 13.4951 15.3073
rfemur -27.2344 -5.50686 14.9113
rtibia 74.0822
rfoot 3.7683 7.13621
rtoes -7.51151
lfemur -39.1494 2.30346 -28.0062
ltibia 37.4532
lfoot -15.9403 -2.89166
ltoes -12.8502
318
root 0.450253 16.1834 23.5057 17.2834 -1.38469 3.76254
lowerback -15.2084 -0.267515 -6.41673
upperback -4.97631 0.691541 -2.25297
thorax 3.18391 0.350481 1.3743
lowerneck -5.60648 -0.35211 -0.975826
upperneck 8.32038 -0.645639 2.90534
head 3.71602 -0.225137 1.10175
rclavicle 1.02374e-014 -4.6118e-014
rhumerus -33.7382 4.36562 -90.2851
rradius 50.0977
rwrist -20.7323
rhand -17.6465 -72.4025
rfingers 7.12502
rthumb 8.61147 -257.793
lclavicle 1.02374e-014 -4.6118e-014
lhumerus -60.8686 36.2387 42.8636
lradius 11.5164
lwrist -42.7567
lhand -13.0382 -14.3765
lfingers 7.12502
lthumb 13.0564 15.1948
rfemur -28.9805 -6.13635 15.0181
rtibia 75.2349
rfoot 1.89236 6.35325
rtoes -5.79811
lfemur -37.8532 1.82413 -28.1328
ltibia 37.0925
lfoot -17.0197 -2.07199
ltoes -16.8725
319
root 0.462338 16.1997 23.6916 17.1986 -1.20596 3.6233
lowerback -14.9629 -0.367365 -6.24965
upperback -5.00509 0.507758 -2.12871
thorax 3.03578 0.264128 1.37834
lowerneck -5.4231 -0.297121 -1.07091
upperneck 8.41934 -0.568254 2.93134
head 3.71391 -0.189562 1.13125
rclavicle -1.45672e-014 4.17448e-014
rhumerus -34.629 3.91206 -90.4411
rradius 48.3999
rwrist -20.4748
rhand -19.4312 -63.0394
rfingers 7.12502
rthumb 6.88891 -267.093
lclavicle -1.45672e-014 4.17448e-014
lhumerus -57.8942 35.3547 46.8212
lradius 11.8552
lwrist -40.0996
lhand -13.6176 -14.514
lfingers 7.12502
lthumb 12.4978 15.0923
rfemur -30.6564 -6.39284 15.492
rtibia 75.9652
rfoot 0.642837 5.81189
rtoes -4.08985
lfemur -36.8151 1.67505 -27.9246
ltibia 36.8049
lfoot -17.4575 -1.66321
ltoes -18.2597
320
root 0.464804 16.217 23.8996 17.2758 -1.82619 3.14932
lowerback -15.2618 -0.237814 -6.0236
upperback -5.10452 0.654339 -1.92008
thorax 3.08191 0.336984 1.49752
lowerneck -4.94898 -0.290604 -1.09115
upperneck 8.44873 -0.559334 2.92295
head 3.63117 -0.189509 1.13061
rclavicle -1.0312e-015 7.15625e-015
rhumerus -35.7611 3.36245 -90.6276
rradius 46.6132
rwrist -20.1848
rhand -21.4404 -52.0423
rfingers 7.12502
rthumb 4.94909 -441.964
lclavicle -1.0312e-015 7.15625e-015
lhumerus -54.7083 33.658 51.4357
lradius 12.5135
lwrist -36.4769
lhand -13.7413 -13.5414
lfingers 7.12502
lthumb 12.3785 16.0721
rfemur -32.456 -5.64845 16.1761
rtibia 76.3358
rfoot -0.338661 5.35334
rtoes -3.57084
lfemur -36.0434 2.26562 -27.5516
ltibia 36.6262
lfoot -18.2773 -1.1054
ltoes -19.4272
321
root 0.462386 16.2394 24.1084 16.9038 -1.6211 2.23285
lowerback -14.8438 -0.256155 -5.31044
upperback -5.14921 0.476809 -1.52103
thorax 2.82974 0.255179 1.48332
lowerneck -4.68595 -0.287607 -0.937121
upperneck 8.64104 -0.553594 2.70399
head 3.64393 -0.191602 1.03127
rclavicle 6.41236e-015 -1.15295e-014
rhumerus -36.8512 2.78855 -90.6966
rradius 44.7227
rwrist -19.7968
rhand -22.5179 -42.2289
rfingers 7.12502
rthumb 3.90865 -432.173
lclavicle 6.41236e-015 -1.15295e-014
lhumerus -51.7442 31.4972 55.9465
lradius 13.4434
lwrist -32.8591
lhand -13.6417 -12.5109
lfingers 7.12502
lthumb 12.4746 17.0968
rfemur -33.5194 -5.30366 17.6612
rtibia 76.2705
rfoot -0.99317 4.81732
rtoes -3.40422
lfemur -34.9483 2.50403 -26.4358
ltibia 36.6637
lfoot -19.1025 -1.08191
ltoes -18.765
322
root 0.48422 16.2546 24.3049 16.9395 -1.46404 2.85206
lowerback -14.7219 -0.473114 -5.8014
upperback -5.27663 0.248077 -1.58381
thorax 2.63881 0.150952 1.65426
lowerneck -4.62145 -0.223872 -0.936329
upperneck 8.8921 -0.464775 2.60901
head 3.71674 -0.150703 1.00547
rclavicle -5.10939e-015 1.47101e-014
rhumerus -37.7889 2.06803 -90.5438
rradius 42.7845
rwrist -19.412
rhand -22.8697 -35.239
rfingers 7.12502
rthumb 3.56888 -425.189
lclavicle -5.10939e-015 1.47101e-014
lhumerus -49.2941 29.8444 59.418
lradius 14.244
lwrist -30.4042
lhand -13.8135 -12.4035
lfingers 7.12502
lthumb 12.3089 17.2142
rfemur -35.1224 -5.86544 17.2298
rtibia 76.2189
rfoot -1.81946 5.06142
rtoes -4.13088
lfemur -34.1514 2.41572 -27.1944
ltibia 36.6845
lfoot -19.3275 -1.67215
ltoes -15.6758
323
root 0.520797 16.2694 24.5034 16.9213 -0.847071 2.28508
lowerback -14.7802 -0.57222 -4.7699
upperback -5.22455 -0.0280945 -1.39372
thorax 2.75106 0.00543856 1.22767
lowerneck -4.56808 -0.132536 -0.994562
upperneck 9.02726 -0.342257 2.63151
head 3.75173 -0.0907884 1.02988
rclavicle -1.94747e-015 -3.97569e-016
rhumerus -38.4941 1.29384 -90.3796
rradius 40.7005
rwrist -19.1018
rhand -23.1658 -31.7452
rfingers 7.12502
rthumb 3.28297 -421.7
lclavicle -1.94747e-015 -3.97569e-016
lhumerus -46.8895 28.5301 62.3392
lradius 14.8093
lwrist -28.1976
lhand -14.5565 -13.1613
lfingers 7.12502
lthumb 11.5925 16.4981
rfemur -36.3374 -6.49812 18.1544
rtibia 75.7431
rfoot -3.18995 5.12943
rtoes -5.84291
lfemur -33.2646 2.32376 -26.6407
ltibia 36.7838
lfoot -19.3268 -2.45059
ltoes -11.8501
324
root 0.493022 16.2664 24.7056 16.7286 -1.47106 2.20887
lowerback -14.8712 -0.554609 -5.36303
upperback -5.10214 0.0817929 -1.20623
thorax 2.91754 0.0583811 1.77667
lowerneck -4.50899 -0.116013 -1.04252
upperneck 9.1229 -0.317615 2.62308
head 3.7735 -0.0806039 1.03729
rclavicle 1.04207e-014 -1.19271e-014
rhumerus -39.1192 0.380674 -90.122
rradius 38.644
rwrist -18.5317
rhand -22.8094 -31.6444
rfingers 7.12502
rthumb 3.62716 -421.593
lclavicle 1.04207e-014 -1.19271e-014
lhumerus -44.3878 26.6262 65.3998
lradius 15.4585
lwrist -25.436
lhand -15.3423 -13.9057
lfingers 7.12502
lthumb 10.8346 15.7948
rfemur -37.8395 -5.55859 18.6269
rtibia 75.2771
rfoot -4.56476 4.54756
rtoes -6.67311
lfemur -32.2808 3.00231 -26.5529
ltibia 36.7896
lfoot -19.5923 -2.59775
ltoes -9.49575
325
root 0.51704 16.2674 24.9147 16.6076 -1.1086 1.94255
lowerback -14.8834 -0.621512 -4.81246
upperback -5.05914 -0.0865174 -1.10464
thorax 2.98396 -0.0290434 1.54458
lowerneck -4.42999 -0.146811 -1.18724
upperneck 9.26281 -0.357622 2.6979
head 3.80967 -0.10218 1.08699
rclavicle -5.98528e-015 -9.14409e-015
rhumerus -39.8296 -1.05092 -89.4975
rradius 36.5966
rwrist -17.4276
rhand -22.9305 -31.3303
rfingers 7.12502
rthumb 3.51019 -421.281
lclavicle -5.98528e-015 -9.14409e-015
lhumerus -42.089 24.2451 68.3873
lradius 16.3069
lwrist -22.463
lhand -15.6695 -14.0124
lfingers 7.12502
lthumb 10.519 15.7044
rfemur -38.8305 -5.93604 19.2503
rtibia 74.428
rfoot -6.44988 4.35542
rtoes -7.661
lfemur -31.245 3.25108 -26.3689
ltibia 36.8121
lfoot -20.403 -2.6897
ltoes -8.95947
